<svg width="36" height="36" viewBox="0 0 36 36" fill="none" xmlns="http://www.w3.org/2000/svg">
<path d="M27 10.74C26.91 10.725 26.805 10.725 26.715 10.74C24.645 10.665 22.995 8.97 22.995 6.87C22.995 4.725 24.72 3 26.865 3C29.01 3 30.735 4.74 30.735 6.87C30.72 8.97 29.07 10.665 27 10.74Z" stroke="white" stroke-width="3" stroke-linecap="round" stroke-linejoin="round"/>
<path d="M25.455 21.66C27.51 22.005 29.775 21.645 31.365 20.58C33.48 19.17 33.48 16.86 31.365 15.45C29.76 14.385 27.465 14.025 25.41 14.385" stroke="white" stroke-width="3" stroke-linecap="round" stroke-linejoin="round"/>
<path d="M8.95497 10.74C9.04497 10.725 9.14997 10.725 9.23997 10.74C11.31 10.665 12.96 8.97 12.96 6.87C12.96 4.725 11.235 3 9.08997 3C6.94497 3 5.21997 4.74 5.21997 6.87C5.23497 8.97 6.88497 10.665 8.95497 10.74Z" stroke="white" stroke-width="3" stroke-linecap="round" stroke-linejoin="round"/>
<path d="M10.5 21.66C8.44503 22.005 6.18003 21.645 4.59003 20.58C2.47503 19.17 2.47503 16.86 4.59003 15.45C6.19503 14.385 8.49003 14.025 10.545 14.385" stroke="white" stroke-width="3" stroke-linecap="round" stroke-linejoin="round"/>
<path d="M18 21.9451C17.91 21.9301 17.805 21.9301 17.715 21.9451C15.645 21.8701 13.995 20.1751 13.995 18.0751C13.995 15.9301 15.72 14.2051 17.865 14.2051C20.01 14.2051 21.735 15.9451 21.735 18.0751C21.72 20.1751 20.07 21.8851 18 21.9451Z" stroke="white" stroke-width="3" stroke-linecap="round" stroke-linejoin="round"/>
<path d="M13.635 26.67C11.52 28.08 11.52 30.39 13.635 31.8C16.035 33.405 19.965 33.405 22.365 31.8C24.48 30.39 24.48 28.08 22.365 26.67C19.98 25.08 16.035 25.08 13.635 26.67Z" stroke="white" stroke-width="3" stroke-linecap="round" stroke-linejoin="round"/>
</svg>
