<svg width="24" height="23" viewBox="0 0 24 23" fill="none" xmlns="http://www.w3.org/2000/svg">
<path d="M6.49996 0.916992C4.7049 0.994983 3.01366 1.78025 1.79574 3.10122C0.577818 4.4222 -0.0677922 6.17152 -4.17093e-05 7.96699C-4.17093e-05 12.514 4.78596 17.48 8.79996 20.847C9.69618 21.6001 10.8293 22.013 12 22.013C13.1706 22.013 14.3037 21.6001 15.2 20.847C19.214 17.48 24 12.514 24 7.96699C24.0677 6.17152 23.4221 4.4222 22.2042 3.10122C20.9863 1.78025 19.295 0.994983 17.5 0.916992M6.49996 0.916992L6.49763 1.06697C6.4991 1.067 6.50057 1.06702 6.50205 1.06704M6.49996 0.916992L6.50647 1.06685C6.505 1.06691 6.50352 1.06698 6.50205 1.06704M6.49996 0.916992C7.62601 0.934507 8.7275 1.24885 9.6932 1.82826C10.6089 2.37768 11.3717 3.14698 11.9132 4.06523C11.8982 4.09149 11.8834 4.11787 11.8687 4.14435L12 4.21699L12.1312 4.14435C12.1165 4.11787 12.1017 4.09149 12.0867 4.06523C12.6282 3.14698 13.391 2.37768 14.3067 1.82826C15.2724 1.24885 16.3739 0.934507 17.5 0.916992M6.50205 1.06704C4.74823 1.14441 3.09608 1.91215 1.90602 3.2029C0.714964 4.49474 0.0835956 6.20547 0.149852 7.96134L0.150065 7.96699H0.149958C0.149958 10.1911 1.32256 12.5368 3.01406 14.7586C4.70285 16.977 6.89356 19.0521 8.89636 20.7321L8.89646 20.7322C9.76565 21.4626 10.8646 21.863 12 21.863C13.1353 21.863 14.2343 21.4626 15.1035 20.7322L15.1036 20.7321C17.1064 19.0521 19.2971 16.977 20.9859 14.7586C22.6774 12.5368 23.85 10.1911 23.85 7.96699V7.96133L23.8501 7.96134C23.9163 6.20547 23.285 4.49474 22.0939 3.2029C20.9038 1.91215 19.2517 1.14441 17.4979 1.06704M6.50205 1.06704C7.60017 1.0849 8.67422 1.39181 9.61602 1.95689C10.5591 2.52272 11.3361 3.32739 11.8687 4.28963L12 4.52675L12.1312 4.28963C12.6638 3.32739 13.4408 2.52272 14.3839 1.95689C15.3257 1.39181 16.3997 1.0849 17.4979 1.06704M17.4979 1.06704C17.4993 1.06702 17.5008 1.067 17.5023 1.06697L17.5 0.916992M17.4979 1.06704C17.4964 1.06698 17.4949 1.06691 17.4934 1.06685L17.5 0.916992M14.065 19.3868L14.0116 19.4317C13.4485 19.9059 12.7361 20.1659 12 20.1659C11.2639 20.1659 10.5516 19.9059 9.98854 19.4319C9.98847 19.4318 9.98841 19.4318 9.98834 19.4317L10.085 19.317C4.94696 15.006 1.99996 10.87 1.99996 7.96699L14.065 19.3868ZM14.065 19.3868V19.3829C16.615 17.2395 18.6275 15.1356 20.0064 13.2005C21.3909 11.2575 22.1486 9.46796 22.15 7.97106C22.2193 6.66763 21.771 5.38949 20.9026 4.4149C20.0332 3.43931 18.8134 2.84704 17.5091 2.76727L17.5 2.76671L17.4908 2.76727C16.1865 2.84704 14.9667 3.43931 14.0973 4.4149C13.2289 5.38944 12.7807 6.66749 12.8499 7.97085C12.8489 8.19489 12.7595 8.40954 12.601 8.56803C12.4416 8.72744 12.2254 8.81699 12 8.81699C11.7745 8.81699 11.5583 8.72744 11.3989 8.56803C11.2404 8.40954 11.151 8.19489 11.15 7.97085C11.2193 6.66749 10.771 5.38944 9.90258 4.4149C9.03324 3.43931 7.81341 2.84704 6.50912 2.76727L6.49996 2.76671L6.4908 2.76727C5.18651 2.84704 3.96667 3.43931 3.09733 4.4149C2.22889 5.38949 1.78061 6.66762 1.84996 7.97105L14.065 19.3868Z" fill="#292D32" stroke="#F9F9F9" stroke-width="0.3"/>
</svg>
