<svg width="20" height="20" viewBox="0 0 20 20" fill="none" xmlns="http://www.w3.org/2000/svg">
<g clip-path="url(#clip0_1_7747)">
<rect width="20" height="20" fill="white"/>
<g clip-path="url(#clip1_1_7747)">
<rect width="18.4002" height="18.4002" transform="translate(0.766724 0.766602)" fill="white"/>
<path d="M18.9422 17.8582L14.366 13.2819C15.6131 11.7567 16.2262 9.81047 16.0786 7.84585C15.931 5.88123 15.0339 4.0485 13.5729 2.72674C12.1119 1.40499 10.1988 0.695344 8.22925 0.744589C6.2597 0.793834 4.38443 1.5982 2.99132 2.99132C1.5982 4.38443 0.793834 6.2597 0.744589 8.22925C0.695344 10.1988 1.40499 12.1119 2.72674 13.5729C4.0485 15.0339 5.88123 15.931 7.84585 16.0786C9.81047 16.2262 11.7567 15.6131 13.2819 14.366L17.8582 18.9422C18.0028 19.0819 18.1964 19.1592 18.3974 19.1574C18.5985 19.1557 18.7908 19.0751 18.9329 18.9329C19.0751 18.7908 19.1557 18.5985 19.1574 18.3974C19.1592 18.1964 19.0819 18.0028 18.9422 17.8582ZM8.43346 14.5668C7.22039 14.5668 6.03456 14.2071 5.02593 13.5332C4.0173 12.8592 3.23117 11.9013 2.76695 10.7806C2.30273 9.65987 2.18127 8.42665 2.41792 7.23689C2.65458 6.04713 3.23873 4.95427 4.0965 4.0965C4.95427 3.23873 6.04713 2.65458 7.23689 2.41792C8.42665 2.18127 9.65987 2.30273 10.7806 2.76695C11.9013 3.23117 12.8592 4.0173 13.5332 5.02593C14.2071 6.03456 14.5668 7.22039 14.5668 8.43346C14.565 10.0596 13.9182 11.6186 12.7684 12.7684C11.6186 13.9182 10.0596 14.565 8.43346 14.5668Z" fill="#292D32"/>
</g>
</g>
<defs>
<clipPath id="clip0_1_7747">
<rect width="20" height="20" fill="white"/>
</clipPath>
<clipPath id="clip1_1_7747">
<rect width="18.4002" height="18.4002" fill="white" transform="translate(0.766724 0.766602)"/>
</clipPath>
</defs>
</svg>
