<svg width="27" height="27" viewBox="0 0 27 27" fill="none" xmlns="http://www.w3.org/2000/svg">
<path d="M18.1158 8.69544V6.55777C18.1158 5.89165 17.9846 5.23206 17.7297 4.61664C17.4748 4.00123 17.1012 3.44205 16.6301 2.97103C16.1591 2.50001 15.6 2.12638 14.9845 1.87147C14.3691 1.61655 13.7095 1.48535 13.0434 1.48535C12.3773 1.48535 11.7177 1.61655 11.1023 1.87147C10.4869 2.12638 9.92768 2.50001 9.45666 2.97103C8.98564 3.44205 8.61201 4.00123 8.3571 4.61664C8.10218 5.23206 7.97098 5.89165 7.97098 6.55777V11.6302C7.97098 11.8224 8.04733 12.0067 8.18322 12.1426C8.31912 12.2785 8.50343 12.3548 8.69561 12.3548C8.8878 12.3548 9.07211 12.2785 9.20801 12.1426C9.3439 12.0067 9.42025 11.8224 9.42025 11.6302V10.1447H15.2173V8.69544H9.42025V6.55777C9.42025 5.59685 9.80197 4.67529 10.4814 3.99581C11.1609 3.31634 12.0825 2.93462 13.0434 2.93462C14.0043 2.93462 14.9259 3.31634 15.6054 3.99581C16.2848 4.67529 16.6666 5.59685 16.6666 6.55777V11.594C16.6666 11.7861 16.7429 11.9705 16.8788 12.1064C17.0147 12.2423 17.199 12.3186 17.3912 12.3186C17.5834 12.3186 17.7677 12.2423 17.9036 12.1064C18.0395 11.9705 18.1158 11.7861 18.1158 11.594V10.1447H21.739V23.1881H4.34782V10.1447H6.52172V8.69544H2.89856V23.2533C2.89856 23.6204 3.04438 23.9724 3.30394 24.232C3.5635 24.4915 3.91553 24.6373 4.28261 24.6373H21.8042C22.1713 24.6373 22.5233 24.4915 22.7829 24.232C23.0424 23.9724 23.1882 23.6204 23.1882 23.2533V8.69544H18.1158Z" fill="#292D32"/>
</svg>
